<?xml version="1.0" standalone="no"?>
<!DOCTYPE svg PUBLIC "-//W3C//DTD SVG 20010904//EN"
 "http://www.w3.org/TR/2001/REC-SVG-20010904/DTD/svg10.dtd">
<svg version="1.0" xmlns="http://www.w3.org/2000/svg"
 width="143.000000pt" height="32.000000pt" viewBox="0 0 143.000000 32.000000"
 preserveAspectRatio="xMidYMid meet">

<g transform="translate(0.000000,32.000000) scale(0.100000,-0.100000)"
fill="#000000" stroke="none">
<path d="M165 302 c-16 -11 -14 -42 2 -42 10 0 14 7 10 19 -4 17 1 21 32 24
l36 4 -35 1 c-19 1 -39 -2 -45 -6z"/>
<path d="M250 290 c0 -6 -13 -8 -30 -5 -22 4 -30 1 -30 -10 0 -8 7 -15 15 -15
8 0 15 6 15 13 0 8 4 7 10 -3 9 -13 12 -13 21 3 15 25 46 5 70 -46 10 -23 19
-36 19 -29 0 22 -29 70 -52 86 -26 18 -38 20 -38 6z"/>
<path d="M109 263 l-24 -28 28 24 c25 23 32 31 24 31 -2 0 -14 -12 -28 -27z"/>
<path d="M166 231 c-12 -13 -15 -27 -10 -45 8 -33 21 -41 39 -26 12 10 18 10
30 0 18 -15 31 -7 39 26 14 53 -60 87 -98 45z m88 -26 c4 -12 -4 -15 -46 -15
-50 0 -57 12 -13 23 38 9 53 7 59 -8z"/>
<path d="M76 215 c-3 -9 -5 -35 -5 -58 2 -40 2 -39 9 13 7 59 6 71 -4 45z"/>
<path d="M341 164 c0 -11 3 -14 6 -6 3 7 2 16 -1 19 -3 4 -6 -2 -5 -13z"/>
<path d="M146 142 c-17 -28 29 -82 68 -82 25 0 56 37 56 66 0 21 -3 25 -17 18
-23 -10 -63 -10 -84 0 -10 4 -20 3 -23 -2z"/>
<path d="M110 72 c0 -31 36 -55 90 -60 46 -4 50 -3 50 18 0 20 -4 22 -45 18
-25 -2 -45 1 -45 5 0 5 -7 7 -15 3 -9 -3 -15 0 -15 9 0 7 -4 17 -10 20 -5 3
-10 -2 -10 -13z"/>
<path d="M283 73 c-13 -8 -23 -25 -23 -37 0 -12 3 -16 8 -10 4 6 15 13 25 17
9 3 17 16 17 27 0 23 1 23 -27 3z"/>
</g>
</svg>
