<?xml version="1.0" standalone="no"?>
<!DOCTYPE svg PUBLIC "-//W3C//DTD SVG 20010904//EN"
 "http://www.w3.org/TR/2001/REC-SVG-20010904/DTD/svg10.dtd">
<svg version="1.0" xmlns="http://www.w3.org/2000/svg"
 width="942.000000pt" height="999.000000pt" viewBox="0 0 942.000000 999.000000"
 preserveAspectRatio="xMidYMid meet">

<g transform="translate(0.000000,999.000000) scale(0.100000,-0.100000)"
fill="#000000" stroke="none">
<path d="M4490 9714 c-885 -52 -1729 -374 -2423 -927 -102 -81 -121 -98 -252
-216 -385 -352 -731 -819 -980 -1326 -273 -556 -410 -1058 -475 -1734 -23
-242 -10 -714 30 -1022 81 -644 342 -1364 685 -1890 109 -167 238 -349 248
-349 4 0 7 35 7 78 0 42 5 117 10 166 9 72 8 92 -3 105 -7 9 -38 57 -69 106
-383 624 -616 1341 -669 2058 -22 306 -10 702 31 989 179 1247 845 2337 1845
3020 525 358 1116 580 1770 665 188 24 679 26 870 3 480 -58 862 -168 1280
-369 723 -348 1326 -897 1753 -1596 550 -901 766 -1989 606 -3050 -96 -636
-352 -1310 -686 -1808 l-39 -58 25 -108 c14 -59 26 -119 26 -133 0 -13 3 -28
6 -31 8 -7 86 100 199 273 279 426 488 908 610 1410 48 198 55 230 79 380 52
331 60 433 60 795 -1 282 -5 369 -22 510 -74 600 -206 1061 -446 1560 -320
664 -778 1221 -1373 1668 -689 518 -1557 815 -2423 831 -118 2 -244 2 -280 0z"/>
<path d="M3115 8958 c-40 -210 -150 -870 -146 -873 2 -3 80 -5 172 -5 l167 0
6 28 c3 15 17 95 31 177 33 192 31 185 65 185 19 0 31 -6 34 -17 9 -29 24
-142 31 -228 3 -44 9 -95 12 -112 l5 -33 169 0 c92 0 170 3 172 8 3 4 -4 84
-14 177 -15 134 -25 180 -43 216 l-24 47 31 6 c17 3 50 18 74 32 63 36 86 87
91 199 3 80 1 95 -20 135 -46 85 -43 85 -450 88 l-357 3 -6 -33z m456 -138
c15 -9 19 -22 19 -71 0 -50 -4 -64 -25 -84 -21 -22 -33 -25 -90 -25 -36 0 -65
3 -65 8 0 4 7 45 15 92 8 47 15 86 15 88 0 7 114 0 131 -8z"/>
<path d="M4266 8938 c-24 -54 -145 -316 -300 -648 -47 -101 -86 -190 -86 -197
0 -10 23 -13 84 -13 l85 0 47 100 47 100 133 0 133 0 5 -42 c4 -24 7 -68 9
-98 l2 -55 173 -3 c94 -1 172 1 172 5 0 28 -30 690 -36 786 l-7 117 -218 0
-219 0 -24 -52z m133 -375 l1 -113 -85 0 c-47 0 -85 4 -85 9 0 5 35 85 78 178
l77 168 6 -65 c4 -36 7 -116 8 -177z"/>
<path d="M4920 8983 c0 -5 -25 -150 -55 -323 -30 -173 -55 -331 -55 -350 1
-52 32 -111 80 -153 139 -119 523 -122 656 -4 65 56 78 96 124 362 17 99 42
244 56 322 13 78 24 145 24 148 0 3 -36 5 -79 5 -73 0 -79 -2 -84 -22 -4 -13
-25 -131 -47 -263 -68 -400 -75 -421 -145 -455 -69 -33 -139 -24 -191 25 -31
29 -34 38 -34 86 0 43 64 440 96 597 l7 32 -177 0 c-97 0 -176 -3 -176 -7z"/>
<path d="M5856 8963 c-18 -89 -146 -846 -146 -863 0 -20 4 -20 352 -18 l352 3
7 35 c4 19 10 56 14 83 l6 47 -181 0 -180 0 5 23 c3 12 14 74 25 137 55 327
91 537 95 558 l5 22 -174 0 -174 0 -6 -27z"/>
<path d="M4635 7900 c-527 -56 -1031 -299 -1343 -649 -283 -316 -428 -605
-448 -886 -13 -196 66 -558 166 -754 l17 -34 27 109 c85 346 203 517 460 669
15 9 15 19 -4 150 -12 77 -22 145 -25 151 -4 13 117 18 730 34 875 22 815 19
815 45 0 31 -36 131 -65 181 -47 79 -148 148 -295 200 -82 28 -58 31 40 3 107
-29 200 -81 263 -147 51 -55 119 -161 147 -229 12 -31 16 -33 59 -33 92 0 91
-1 91 114 -1 216 -60 352 -205 463 -80 62 -86 68 -45 48 48 -24 158 -106 197
-147 86 -91 131 -207 140 -365 l6 -103 97 0 c91 0 98 2 103 21 7 25 -9 253
-24 332 -39 221 -136 356 -331 463 -35 19 -52 32 -38 28 97 -27 274 -137 340
-212 92 -104 132 -233 154 -492 l11 -135 45 -3 c25 -1 70 1 100 5 l54 8 48 90
c64 122 81 197 77 333 -4 102 -6 113 -43 188 -32 64 -58 98 -140 180 -170 169
-358 276 -594 335 -182 46 -389 60 -587 39z"/>
<path d="M6113 7053 c-3 -10 -55 -137 -115 -282 -59 -145 -108 -270 -108 -277
0 -8 28 -28 63 -45 153 -78 312 -209 390 -323 79 -117 165 -322 208 -495 6
-23 12 -41 14 -39 4 4 34 160 71 373 46 262 43 548 -6 708 -48 154 -183 281
-380 359 -98 39 -129 43 -137 21z"/>
<path d="M3600 5918 c-104 -22 -193 -64 -242 -115 -21 -21 -68 -83 -105 -138
-50 -74 -78 -105 -105 -118 l-38 -19 0 -81 c0 -90 3 -97 42 -114 36 -16 54
-46 73 -123 88 -351 221 -470 527 -470 226 0 425 87 604 265 108 108 182 212
259 365 64 126 86 150 141 150 71 0 86 -13 143 -123 169 -326 369 -524 613
-607 149 -52 278 -62 416 -34 105 21 172 55 229 118 77 84 102 139 169 375 15
53 24 67 55 86 25 16 38 33 43 55 10 53 7 129 -6 139 -64 50 -101 90 -126 135
-72 127 -178 207 -329 248 -77 21 -91 21 -1178 23 -1032 2 -1105 1 -1185 -17z
m1324 -74 c23 -9 20 -40 -8 -77 -13 -18 -30 -52 -38 -77 l-15 -45 -87 -3 c-98
-3 -111 2 -120 52 -4 19 -20 52 -36 75 -54 74 -43 81 141 81 81 0 154 -3 163
-6z"/>
<path d="M3040 4943 c-31 -142 -160 -423 -284 -623 -105 -167 -120 -204 -120
-285 0 -104 42 -217 127 -338 l40 -57 43 79 c45 86 104 175 110 169 2 -2 -4
-26 -12 -53 -62 -202 -91 -426 -74 -572 36 -316 172 -543 394 -654 86 -43 121
-50 112 -21 -13 44 -25 113 -31 182 l-6 75 34 -100 c61 -180 145 -338 233
-435 114 -125 351 -254 562 -305 l74 -18 40 39 c22 22 62 65 89 97 27 32 49
53 49 47 0 -16 -58 -129 -91 -177 -16 -23 -29 -44 -29 -47 0 -14 74 -4 109 14
57 29 114 101 177 225 54 106 56 108 49 60 -18 -122 -83 -274 -177 -413 -27
-41 -47 -76 -44 -80 11 -11 100 18 155 51 97 57 169 182 231 398 15 53 31 119
35 147 4 29 10 52 15 52 20 0 27 -210 10 -301 -15 -81 -54 -176 -115 -278 -29
-50 -50 -91 -46 -91 19 0 218 73 313 115 328 144 524 320 713 638 32 53 59 96
61 94 11 -11 -53 -227 -89 -301 -24 -47 -39 -86 -35 -86 20 0 186 84 250 127
135 90 239 219 273 338 26 91 36 227 25 348 -11 116 -36 283 -46 298 -3 5 -3
9 0 9 11 0 96 -180 112 -238 l17 -59 32 36 c87 98 215 291 284 429 46 91 98
254 110 345 14 101 4 164 -53 338 -85 260 -161 570 -181 743 l-7 59 -30 -54
c-69 -122 -276 -292 -480 -395 -162 -81 -415 -152 -608 -170 l-70 -7 0 49 0
50 -244 147 c-134 81 -246 147 -250 147 -3 0 -6 -13 -6 -29 0 -26 15 -37 203
-151 111 -68 212 -129 225 -137 22 -13 22 -17 22 -207 l0 -194 -39 -35 c-36
-33 -92 -57 -132 -57 -30 0 -103 30 -127 53 -34 31 -62 90 -62 129 0 18 -3 50
-6 71 l-7 37 -118 0 -119 0 0 -70 c0 -83 -22 -136 -72 -173 -89 -66 -197 -61
-270 13 l-38 38 2 193 3 192 210 129 c116 71 216 133 223 137 8 4 12 20 10 39
l-3 31 -155 -96 c-85 -52 -195 -119 -245 -149 l-90 -55 -5 -47 c-5 -47 -5 -47
-40 -44 -68 6 -276 51 -355 77 -117 39 -328 144 -424 213 -139 100 -263 228
-306 318 l-22 45 -13 -58z"/>
<path d="M1520 2399 l0 -654 85 -110 c168 -216 397 -441 527 -518 71 -42 124
-49 152 -18 26 28 39 141 33 276 -8 177 -35 243 -158 385 l-61 72 38 -20 c97
-49 136 -34 149 56 15 109 -19 266 -81 379 -49 88 -100 151 -238 293 -200 205
-280 294 -362 402 -42 57 -78 105 -80 107 -2 2 -4 -290 -4 -650z m402 -69 c16
-44 16 -216 1 -231 -8 -8 -22 -1 -52 26 l-41 37 0 147 1 146 39 -45 c22 -25
46 -61 52 -80z m5 -498 c12 -42 10 -279 -3 -292 -8 -8 -22 -2 -52 22 l-41 33
0 183 -1 183 45 -51 c25 -28 48 -63 52 -78z"/>
<path d="M7764 2871 c-17 -10 -93 -81 -170 -157 -145 -143 -288 -270 -412
-364 l-72 -55 0 -653 0 -654 68 53 c90 71 164 132 239 199 l63 55 0 296 0 297
36 31 c20 18 41 30 47 28 9 -3 13 -80 15 -270 1 -147 6 -267 10 -267 10 1 167
189 230 275 l52 73 0 240 c0 132 -3 253 -6 270 -9 47 -38 50 -91 13 -25 -18
-41 -26 -37 -19 4 7 19 31 33 53 65 99 89 179 97 330 8 128 -7 219 -36 235
-25 14 -30 13 -66 -9z m-186 -549 l-3 -118 -40 -52 c-21 -29 -43 -52 -47 -52
-4 0 -8 63 -8 139 l0 139 35 31 c62 54 67 48 63 -87z"/>
<path d="M6885 2149 c-87 -57 -415 -220 -544 -270 l-111 -43 0 -653 0 -653 52
21 c209 82 435 193 608 297 l95 57 3 132 3 132 -78 -48 c-43 -26 -113 -67
-155 -90 l-78 -43 0 145 0 144 130 74 130 74 0 122 c0 117 -4 135 -25 114 -12
-12 -192 -114 -217 -124 -17 -6 -18 4 -18 116 l0 122 48 25 c26 13 89 49 140
79 l92 56 0 127 c0 71 -3 128 -7 127 -5 0 -35 -18 -68 -40z"/>
<path d="M2496 1613 c-48 -263 -96 -525 -107 -582 -18 -99 -18 -104 -2 -117
42 -30 226 -136 318 -183 115 -58 108 -62 119 59 11 118 5 113 96 73 89 -40
84 -31 96 -186 l6 -88 38 -19 c36 -18 283 -104 388 -134 49 -14 52 -14 52 3 0
10 -38 207 -84 437 -47 231 -106 525 -131 654 -25 129 -47 245 -50 257 -4 15
-21 27 -58 41 -179 68 -260 102 -413 178 -94 46 -173 84 -176 84 -2 0 -44
-215 -92 -477z m460 -300 c16 -128 26 -235 22 -238 -3 -3 -35 9 -72 26 -61 29
-66 33 -66 62 0 30 17 138 54 347 9 47 16 92 17 100 3 31 19 -73 45 -297z"/>
<path d="M3592 1048 l3 -652 105 -23 c137 -29 331 -63 364 -63 l26 0 0 291 0
292 43 -7 c52 -9 85 -29 97 -62 6 -14 10 -139 10 -278 l0 -254 28 -6 c15 -3
120 -9 235 -13 l207 -6 0 244 c0 134 -4 260 -10 278 -10 36 -50 85 -85 104
-11 6 -49 21 -85 33 -69 24 -68 25 25 43 120 22 150 71 150 241 0 100 -3 122
-24 167 -13 29 -41 69 -63 89 -79 71 -137 87 -503 139 -156 22 -376 61 -445
80 -30 8 -61 15 -68 15 -10 0 -12 -134 -10 -652z m602 311 c35 -16 46 -50 46
-144 0 -109 -14 -128 -93 -123 l-52 3 -3 144 -3 144 40 -7 c22 -3 51 -11 65
-17z"/>
<path d="M5433 1631 c-144 -21 -312 -42 -375 -46 -62 -3 -121 -9 -130 -11 -17
-5 -18 -45 -18 -655 l0 -649 23 0 c36 0 227 19 367 36 236 29 475 86 573 136
53 26 125 94 147 138 26 52 40 139 40 254 -1 205 -35 254 -187 264 l-72 5 77
46 c59 35 84 57 107 95 29 47 30 54 29 160 0 144 -23 195 -109 238 -68 35
-174 33 -472 -11z m117 -248 c20 -25 22 -36 17 -116 -6 -106 -22 -130 -99
-146 -27 -6 -51 -11 -53 -11 -3 0 -5 65 -5 144 0 161 -4 153 77 155 34 1 45
-4 63 -26z m-4 -477 c16 -12 19 -29 22 -127 5 -140 -6 -179 -52 -201 -19 -9
-50 -20 -70 -23 l-36 -7 0 180 0 181 38 4 c72 7 78 7 98 -7z"/>
</g>
</svg>
